<svg xmlns="http://www.w3.org/2000/svg" viewBox="0 0 927.000000 927.000000">
<g transform="translate(0.000000,927.000000) scale(0.100000,-0.100000)"
fill="#111111" stroke="none">
<path d="M4324 8380 c-11 -4 -81 -20 -155 -35 -666 -134 -1183 -507 -1477
-1065 -163 -310 -243 -646 -243 -1026 1 -213 20 -380 67 -562 104 -408 325
-785 653 -1112 209 -208 425 -368 686 -508 72 -39 142 -80 157 -92 17 -13 63
-91 119 -202 125 -248 123 -243 100 -337 -54 -217 -29 -365 111 -665 97 -208
110 -244 111 -301 1 -57 -13 -88 -80 -179 -129 -175 -184 -380 -153 -573 14
-88 57 -211 124 -358 41 -89 46 -108 46 -171 0 -123 41 -204 140 -273 58 -41
59 -41 150 -41 91 0 92 0 150 41 71 49 105 97 131 179 42 136 19 285 -76 491
-113 243 -113 261 -5 409 141 193 190 405 144 627 -20 100 -41 154 -136 360
-43 94 -84 196 -90 226 -11 50 -10 57 12 93 13 22 97 178 187 348 90 171 171
318 180 328 9 10 68 45 132 79 245 128 494 312 696 514 378 377 619 831 700
1315 23 133 31 428 16 575 -53 516 -260 965 -606 1310 -293 293 -622 467
-1086 572 -164 37 -164 37 -424 40 -143 1 -269 -2 -281 -7z m386 -580 c724
-64 1240 -504 1396 -1190 118 -520 -19 -1046 -388 -1485 -248 -295 -614 -549
-982 -680 -135 -48 -174 -46 -341 20 -701 275 -1208 836 -1337 1477 -32 163
-32 463 0 626 114 566 468 971 1006 1147 146 48 296 75 516 94 8 0 67 -4 130
-9z M7910 7291 c-64 -25 -760 -492 -795 -532 -46 -55 -68 -116 -68 -189 0
-111 58 -206 157 -258 43 -22 64 -27 131 -27 68 0 88 5 133 28 92 48 713 468
753 509 106 109 103 293 -7 402 -79 79 -204 107 -304 67z M1203 7170 c-85 -17
-159 -74 -201 -154 -22 -43 -27 -64 -27 -131 0 -67 5 -88 27 -131 15 -29 45
-67 67 -86 63 -54 669 -439 723 -460 183 -69 388 74 388 272 0 67 -33 151 -78
197 -40 41 -659 444 -727 474 -51 22 -119 29 -172 19z M7547 5459 c-274 -66
-314 -430 -60 -546 76 -35 767 -127 843 -113 85 16 139 53 200 135 40 54 40
54 40 152 -1 98 -1 98 -43 153 -53 69 -122 115 -190 129 -50 11 -614 86 -707
95 -25 3 -62 0 -83 -5z M1250 5346 c-195 -40 -366 -78 -380 -86 -49 -25 -91
-62 -130 -115 -40 -54 -40 -54 -40 -150 0 -96 0 -96 40 -150 72 -98 146 -138
250 -137 96 1 745 134 808 166 208 105 207 407 -2 513 -90 46 -142 42 -546
-41z M2310 3521 c-14 -4 -43 -17 -65 -29 -49 -25 -682 -566 -718 -614 -42 -55
-60 -107 -60 -178 0 -111 58 -206 157 -258 43 -22 64 -27 131 -27 67 0 88 5
130 27 56 29 689 568 729 620 41 55 59 107 59 178 0 157 -116 278 -273 286
-36 2 -76 0 -90 -5z M6783 3480 c-85 -17 -159 -74 -201 -154 -22 -43 -27 -64
-27 -131 0 -87 20 -141 74 -198 35 -38 703 -528 761 -558 67 -35 185 -34 256
3 178 94 212 331 67 469 -61 58 -711 529 -757 549 -52 23 -119 30 -173 20z"/>
</g>
</svg>
