<svg xmlns="http://www.w3.org/2000/svg" viewBox="0 0 1358.000000 1358.000000">
<g transform="translate(0.000000,1358.000000) scale(0.100000,-0.100000)"
fill="#111111" stroke="none">
<path d="M6024 12505 c-34 -34 -60 -48 -150 -79 -208 -72 -329 -139 -569 -318
-212 -158 -326 -287 -508 -576 -94 -150 -147 -262 -206 -442 -72 -222 -64
-167 -126 -820 -36 -375 -62 -983 -75 -1705 -13 -706 -21 -789 -83 -880 -11
-16 -104 -113 -206 -215 -247 -245 -318 -335 -494 -625 -97 -160 -255 -478
-301 -605 -19 -52 -50 -136 -70 -186 -51 -131 -122 -394 -156 -579 -33 -176
-69 -296 -106 -350 -24 -36 -24 -36 -24 -571 0 -534 0 -534 25 -572 34 -51 61
-134 96 -292 45 -209 140 -484 215 -630 76 -145 215 -356 342 -520 166 -212
412 -430 737 -652 238 -163 697 -410 899 -483 50 -18 134 -51 186 -73 52 -23
149 -57 215 -76 66 -20 149 -45 185 -56 36 -11 132 -34 215 -51 152 -31 236
-64 256 -101 9 -17 50 -18 832 -18 823 0 823 0 851 29 38 39 101 65 237 97
156 37 428 133 579 205 260 124 578 340 818 556 80 72 285 322 367 448 175
269 312 558 400 845 60 194 79 277 110 488 32 207 47 269 85 341 30 57 30 57
27 501 -3 445 -3 445 -50 575 -75 205 -117 258 -201 258 -56 0 -90 -25 -122
-89 -27 -55 -27 -55 -18 -292 18 -478 5 -703 -66 -1119 -58 -339 -133 -571
-280 -868 -157 -319 -304 -522 -540 -748 -187 -180 -362 -305 -582 -418 -129
-65 -415 -177 -518 -202 -430 -104 -518 -117 -835 -124 -275 -6 -560 7 -725
33 -380 60 -690 143 -1090 293 -171 64 -486 220 -670 331 -185 111 -498 330
-583 407 -245 221 -416 449 -567 757 -77 155 -98 208 -144 371 -29 105 -59
222 -65 260 -42 259 -42 928 -1 1220 18 123 109 495 162 655 68 210 99 282
232 547 190 381 319 555 605 820 249 230 532 416 825 543 61 26 140 61 176 78
60 28 331 103 494 138 86 18 334 41 536 49 208 9 801 -18 1025 -45 72 -9 326
-59 560 -111 174 -38 408 -127 630 -239 346 -175 459 -253 650 -451 224 -232
355 -448 434 -720 50 -172 87 -242 146 -279 75 -46 161 -6 184 87 16 62 9 97
-55 298 -115 357 -303 662 -585 950 -179 182 -163 107 -170 805 -4 322 -12
659 -18 750 -16 244 -56 725 -66 790 -3 19 -14 136 -25 259 -35 393 -112 789
-192 996 -28 72 -64 157 -81 190 -112 225 -337 501 -519 637 -100 75 -409 268
-510 319 -112 56 -280 120 -445 169 -142 43 -214 77 -236 111 -11 18 -28 19
-637 17 -625 -1 -625 -1 -666 -43z m688 -485 c273 -18 513 -52 653 -90 222
-62 582 -230 780 -364 215 -145 383 -340 505 -584 67 -134 133 -390 185 -722
19 -124 48 -292 65 -375 16 -82 34 -208 40 -280 6 -71 22 -229 35 -350 86
-791 105 -1108 71 -1189 -39 -93 -113 -97 -296 -18 -63 27 -126 53 -140 57
-14 4 -76 27 -139 52 -62 24 -190 64 -285 88 -94 25 -205 54 -246 65 -77 20
-596 100 -775 120 -55 6 -287 11 -515 13 -358 2 -431 0 -535 -16 -369 -56
-739 -162 -1010 -290 -210 -99 -272 -101 -313 -9 -15 33 -17 90 -16 517 1 480
1 480 43 835 23 195 50 443 61 552 11 108 38 292 59 410 22 117 45 247 51 288
6 41 18 100 26 130 24 85 154 343 235 465 94 142 257 307 389 394 119 78 323
182 421 215 108 36 286 75 387 85 48 5 92 9 99 10 6 0 80 -4 165 -9z M6840
5934 c-14 -2 -59 -9 -100 -15 -212 -31 -513 -144 -689 -259 -117 -76 -253
-224 -309 -336 -51 -101 -106 -284 -117 -389 -17 -159 76 -480 169 -583 118
-130 289 -64 274 106 -3 26 -15 97 -28 157 -21 100 -22 118 -12 200 23 181 85
293 217 393 160 120 338 180 555 189 102 4 144 1 227 -16 124 -26 172 -46 241
-100 96 -77 192 -231 227 -366 24 -93 30 -305 12 -391 -52 -243 -258 -422
-597 -520 -176 -51 -277 -56 -385 -19 -44 14 -111 45 -150 68 -92 56 -119 67
-160 67 -76 0 -115 -43 -115 -125 0 -64 28 -112 109 -187 83 -77 172 -126 296
-164 84 -26 102 -28 265 -28 152 0 192 4 304 28 288 60 555 198 706 363 201
219 309 538 279 824 -13 131 -72 364 -115 458 -56 121 -160 267 -264 372 -80
80 -111 103 -188 142 -207 104 -473 157 -652 131z"/>
</g>
</svg>
